<?xml version="1.0" encoding="UTF-8" standalone="no"?>
<!-- Created with Inkscape (http://www.inkscape.org/) -->

<svg
   xmlns:dc="http://purl.org/dc/elements/1.1/"
   xmlns:cc="http://creativecommons.org/ns#"
   xmlns:rdf="http://www.w3.org/1999/02/22-rdf-syntax-ns#"
   xmlns:svg="http://www.w3.org/2000/svg"
   xmlns="http://www.w3.org/2000/svg"
   xmlns:sodipodi="http://sodipodi.sourceforge.net/DTD/sodipodi-0.dtd"
   xmlns:inkscape="http://www.inkscape.org/namespaces/inkscape"
   width="298.07245mm"
   height="107.59905mm"
   viewBox="0 0 298.07245 107.59905"
   version="1.1"
   id="svg12907"
   inkscape:version="0.92.3 (2405546, 2018-03-11)"
   sodipodi:docname="switch_plate_1.5mm.svg">
  <defs
     id="defs12901" />
  <sodipodi:namedview
     id="base"
     pagecolor="#ffffff"
     bordercolor="#666666"
     borderopacity="1.0"
     inkscape:pageopacity="0.0"
     inkscape:pageshadow="2"
     inkscape:zoom="1.979899"
     inkscape:cx="517.19576"
     inkscape:cy="401.85252"
     inkscape:document-units="mm"
     inkscape:current-layer="layer1"
     showgrid="false"
     inkscape:window-width="3840"
     inkscape:window-height="2093"
     inkscape:window-x="0"
     inkscape:window-y="0"
     inkscape:window-maximized="1" />
  <metadata
     id="metadata12904">
    <rdf:RDF>
      <cc:Work
         rdf:about="">
        <dc:format>image/svg+xml</dc:format>
        <dc:type
           rdf:resource="http://purl.org/dc/dcmitype/StillImage" />
        <dc:title></dc:title>
      </cc:Work>
    </rdf:RDF>
  </metadata>
  <g
     inkscape:label="Layer 1"
     inkscape:groupmode="layer"
     id="layer1"
     transform="translate(43.20289,-95.03381)">
    <g
       id="g12594"
       transform="translate(370.91763,-601.0558)">
      <polygon
         transform="translate(-419.07406,691.16463)"
         id="polygon10186-7"
         style="fill:none;stroke:#000000;stroke-width:0.15000001;stroke-miterlimit:4;stroke-dasharray:none"
         points="196.281,99.824 196.281,102.725 197.081,102.725 197.081,103.725 210.881,103.725 210.881,102.725 211.681,102.725 211.681,99.824 210.881,99.824 210.881,93.824 211.681,93.824 211.681,90.924 210.881,90.924 210.881,89.924 197.081,89.924 197.081,90.924 196.281,90.924 196.281,93.824 197.081,93.824 197.081,99.824 " />
      <polygon
         transform="translate(-419.07406,691.16463)"
         id="polygon10188-3"
         style="fill:none;stroke:#000000;stroke-width:0.15000001;stroke-miterlimit:4;stroke-dasharray:none"
         points="172.468,99.824 172.468,102.725 173.268,102.725 173.268,103.725 187.068,103.725 187.068,102.725 187.868,102.725 187.868,99.824 187.068,99.824 187.068,93.824 187.868,93.824 187.868,90.924 187.068,90.924 187.068,89.924 173.268,89.924 173.268,90.924 172.468,90.924 172.468,93.824 173.268,93.824 173.268,99.824 " />
      <polygon
         transform="translate(-419.07406,691.16463)"
         id="polygon10190-2"
         style="fill:none;stroke:#000000;stroke-width:0.15000001;stroke-miterlimit:4;stroke-dasharray:none"
         points="148.656,99.824 148.656,102.725 149.456,102.725 149.456,103.725 163.256,103.725 163.256,102.725 164.056,102.725 164.056,99.824 163.256,99.824 163.256,93.824 164.056,93.824 164.056,90.924 163.256,90.924 163.256,89.924 149.456,89.924 149.456,90.924 148.656,90.924 148.656,93.824 149.456,93.824 149.456,99.824 " />
      <polygon
         transform="translate(-419.07406,691.16463)"
         id="polygon10200-7"
         style="fill:none;stroke:#000000;stroke-width:0.15000001;stroke-miterlimit:4;stroke-dasharray:none"
         points="279.625,80.774 279.625,83.675 280.425,83.675 280.425,84.675 294.225,84.675 294.225,83.675 295.025,83.675 295.025,80.774 294.225,80.774 294.225,74.774 295.025,74.774 295.025,71.874 294.225,71.874 294.225,70.874 280.425,70.874 280.425,71.874 279.625,71.874 279.625,74.774 280.425,74.774 280.425,80.774 " />
      <polygon
         transform="translate(-419.07406,691.16463)"
         id="polygon10202-2"
         style="fill:none;stroke:#000000;stroke-width:0.15000001;stroke-miterlimit:4;stroke-dasharray:none"
         points="253.431,80.774 253.431,83.675 254.231,83.675 254.231,84.675 268.031,84.675 268.031,83.675 268.831,83.675 268.831,80.774 268.031,80.774 268.031,74.774 268.831,74.774 268.831,71.874 268.031,71.874 268.031,70.874 254.231,70.874 254.231,71.874 253.431,71.874 253.431,74.774 254.231,74.774 254.231,80.774 " />
      <polygon
         transform="translate(-419.07406,691.16463)"
         id="polygon10204-1"
         style="fill:none;stroke:#000000;stroke-width:0.15000001;stroke-miterlimit:4;stroke-dasharray:none"
         points="227.237,80.774 227.237,83.675 228.037,83.675 228.037,84.675 241.837,84.675 241.837,83.675 242.637,83.675 242.637,80.774 241.837,80.774 241.837,74.774 242.637,74.774 242.637,71.874 241.837,71.874 241.837,70.874 228.037,70.874 228.037,71.874 227.237,71.874 227.237,74.774 228.037,74.774 228.037,80.774 " />
      <polygon
         transform="translate(-419.07406,691.16463)"
         id="polygon10206-3"
         style="fill:none;stroke:#000000;stroke-width:0.15000001;stroke-miterlimit:4;stroke-dasharray:none"
         points="208.187,80.774 208.187,83.675 208.987,83.675 208.987,84.675 222.787,84.675 222.787,83.675 223.587,83.675 223.587,80.774 222.787,80.774 222.787,74.774 223.587,74.774 223.587,71.874 222.787,71.874 222.787,70.874 208.987,70.874 208.987,71.874 208.187,71.874 208.187,74.774 208.987,74.774 208.987,80.774 " />
      <polygon
         transform="translate(-419.07406,691.16463)"
         id="polygon10208-4"
         style="fill:none;stroke:#000000;stroke-width:0.15000001;stroke-miterlimit:4;stroke-dasharray:none"
         points="189.137,80.774 189.137,83.675 189.937,83.675 189.937,84.675 203.737,84.675 203.737,83.675 204.537,83.675 204.537,80.774 203.737,80.774 203.737,74.774 204.537,74.774 204.537,71.874 203.737,71.874 203.737,70.874 189.937,70.874 189.937,71.874 189.137,71.874 189.137,74.774 189.937,74.774 189.937,80.774 " />
      <polygon
         transform="translate(-419.07406,691.16463)"
         id="polygon10210-9"
         style="fill:none;stroke:#000000;stroke-width:0.15000001;stroke-miterlimit:4;stroke-dasharray:none"
         points="170.087,80.774 170.087,83.675 170.887,83.675 170.887,84.675 184.687,84.675 184.687,83.675 185.487,83.675 185.487,80.774 184.687,80.774 184.687,74.774 185.487,74.774 185.487,71.874 184.687,71.874 184.687,70.874 170.887,70.874 170.887,71.874 170.087,71.874 170.087,74.774 170.887,74.774 170.887,80.774 " />
      <polygon
         transform="translate(-419.07406,691.16463)"
         id="polygon10212-4"
         style="fill:none;stroke:#000000;stroke-width:0.15000001;stroke-miterlimit:4;stroke-dasharray:none"
         points="151.037,80.774 151.037,83.675 151.837,83.675 151.837,84.675 165.637,84.675 165.637,83.675 166.437,83.675 166.437,80.774 165.637,80.774 165.637,74.774 166.437,74.774 166.437,71.874 165.637,71.874 165.637,70.874 151.837,70.874 151.837,71.874 151.037,71.874 151.037,74.774 151.837,74.774 151.837,80.774 " />
      <polygon
         transform="translate(-419.07406,691.16463)"
         id="polygon10224-1"
         style="fill:none;stroke:#000000;stroke-width:0.15000001;stroke-miterlimit:4;stroke-dasharray:none"
         points="267.718,61.724 267.718,64.625 268.518,64.625 268.518,65.625 282.318,65.625 282.318,64.625 283.118,64.625 283.118,61.724 282.318,61.724 282.318,60.925 284.043,60.925 284.043,65.394 285.768,65.394 285.768,66.375 288.868,66.375 288.868,65.394 290.593,65.394 290.593,59.124 291.418,59.124 291.418,56.524 290.593,56.524 290.593,53.294 288.868,53.294 288.868,52.374 285.768,52.374 285.768,53.294 284.043,53.294 284.043,56.524 282.318,56.524 282.318,55.724 283.118,55.724 283.118,52.824 282.318,52.824 282.318,51.824 268.518,51.824 268.518,52.824 267.718,52.824 267.718,55.724 268.518,55.724 268.518,56.524 266.793,56.524 266.793,53.294 265.068,53.294 265.068,52.374 261.968,52.374 261.968,53.294 260.243,53.294 260.243,56.524 259.418,56.524 259.418,59.124 260.243,59.124 260.243,65.394 261.968,65.394 261.968,66.375 265.068,66.375 265.068,65.394 266.793,65.394 266.793,60.925 268.518,60.925 268.518,61.724 " />
      <polygon
         transform="translate(-419.07406,691.16463)"
         id="polygon10226-9"
         style="fill:none;stroke:#000000;stroke-width:0.15000001;stroke-miterlimit:4;stroke-dasharray:none"
         points="236.762,61.724 236.762,64.625 237.562,64.625 237.562,65.625 251.362,65.625 251.362,64.625 252.162,64.625 252.162,61.724 251.362,61.724 251.362,55.724 252.162,55.724 252.162,52.824 251.362,52.824 251.362,51.824 237.562,51.824 237.562,52.824 236.762,52.824 236.762,55.724 237.562,55.724 237.562,61.724 " />
      <polygon
         transform="translate(-419.07406,691.16463)"
         id="polygon10228-5"
         style="fill:none;stroke:#000000;stroke-width:0.15000001;stroke-miterlimit:4;stroke-dasharray:none"
         points="217.712,61.724 217.712,64.625 218.512,64.625 218.512,65.625 232.312,65.625 232.312,64.625 233.112,64.625 233.112,61.724 232.312,61.724 232.312,55.724 233.112,55.724 233.112,52.824 232.312,52.824 232.312,51.824 218.512,51.824 218.512,52.824 217.712,52.824 217.712,55.724 218.512,55.724 218.512,61.724 " />
      <polygon
         transform="translate(-419.07406,691.16463)"
         id="polygon10230-7"
         style="fill:none;stroke:#000000;stroke-width:0.15000001;stroke-miterlimit:4;stroke-dasharray:none"
         points="198.662,61.724 198.662,64.625 199.462,64.625 199.462,65.625 213.262,65.625 213.262,64.625 214.062,64.625 214.062,61.724 213.262,61.724 213.262,55.724 214.062,55.724 214.062,52.824 213.262,52.824 213.262,51.824 199.462,51.824 199.462,52.824 198.662,52.824 198.662,55.724 199.462,55.724 199.462,61.724 " />
      <polygon
         transform="translate(-419.07406,691.16463)"
         id="polygon10232-4"
         style="fill:none;stroke:#000000;stroke-width:0.15000001;stroke-miterlimit:4;stroke-dasharray:none"
         points="179.612,61.724 179.612,64.625 180.412,64.625 180.412,65.625 194.212,65.625 194.212,64.625 195.012,64.625 195.012,61.724 194.212,61.724 194.212,55.724 195.012,55.724 195.012,52.824 194.212,52.824 194.212,51.824 180.412,51.824 180.412,52.824 179.612,52.824 179.612,55.724 180.412,55.724 180.412,61.724 " />
      <polygon
         transform="translate(-419.07406,691.16463)"
         id="polygon10234-1"
         style="fill:none;stroke:#000000;stroke-width:0.15000001;stroke-miterlimit:4;stroke-dasharray:none"
         points="160.562,61.724 160.562,64.625 161.362,64.625 161.362,65.625 175.162,65.625 175.162,64.625 175.962,64.625 175.962,61.724 175.162,61.724 175.162,55.724 175.962,55.724 175.962,52.824 175.162,52.824 175.162,51.824 161.362,51.824 161.362,52.824 160.562,52.824 160.562,55.724 161.362,55.724 161.362,61.724 " />
      <polygon
         transform="translate(-419.07406,691.16463)"
         id="polygon10236-2"
         style="fill:none;stroke:#000000;stroke-width:0.15000001;stroke-miterlimit:4;stroke-dasharray:none"
         points="141.512,61.724 141.512,64.625 142.312,64.625 142.312,65.625 156.112,65.625 156.112,64.625 156.912,64.625 156.912,61.724 156.112,61.724 156.112,55.724 156.912,55.724 156.912,52.824 156.112,52.824 156.112,51.824 142.312,51.824 142.312,52.824 141.512,52.824 141.512,55.724 142.312,55.724 142.312,61.724 " />
      <polygon
         transform="translate(-419.07406,691.16463)"
         id="polygon10250-2"
         style="fill:none;stroke:#000000;stroke-width:0.15000001;stroke-miterlimit:4;stroke-dasharray:none"
         points="274.862,42.675 274.862,45.574 275.662,45.574 275.662,46.574 289.462,46.574 289.462,45.574 290.262,45.574 290.262,42.675 289.462,42.675 289.462,36.675 290.262,36.675 290.262,33.775 289.462,33.775 289.462,32.775 275.662,32.775 275.662,33.775 274.862,33.775 274.862,36.675 275.662,36.675 275.662,42.675 " />
      <polygon
         transform="translate(-419.07406,691.16463)"
         id="polygon10252-1"
         style="fill:none;stroke:#000000;stroke-width:0.15000001;stroke-miterlimit:4;stroke-dasharray:none"
         points="251.05,42.675 251.05,45.574 251.85,45.574 251.85,46.574 265.65,46.574 265.65,45.574 266.45,45.574 266.45,42.675 265.65,42.675 265.65,36.675 266.45,36.675 266.45,33.775 265.65,33.775 265.65,32.775 251.85,32.775 251.85,33.775 251.05,33.775 251.05,36.675 251.85,36.675 251.85,42.675 " />
      <polygon
         transform="translate(-419.07406,691.16463)"
         id="polygon10254-6"
         style="fill:none;stroke:#000000;stroke-width:0.15000001;stroke-miterlimit:4;stroke-dasharray:none"
         points="232,42.675 232,45.574 232.8,45.574 232.8,46.574 246.6,46.574 246.6,45.574 247.4,45.574 247.4,42.675 246.6,42.675 246.6,36.675 247.4,36.675 247.4,33.775 246.6,33.775 246.6,32.775 232.8,32.775 232.8,33.775 232,33.775 232,36.675 232.8,36.675 232.8,42.675 " />
      <polygon
         transform="translate(-419.07406,691.16463)"
         id="polygon10256-2"
         style="fill:none;stroke:#000000;stroke-width:0.15000001;stroke-miterlimit:4;stroke-dasharray:none"
         points="212.95,42.675 212.95,45.574 213.75,45.574 213.75,46.574 227.55,46.574 227.55,45.574 228.35,45.574 228.35,42.675 227.55,42.675 227.55,36.675 228.35,36.675 228.35,33.775 227.55,33.775 227.55,32.775 213.75,32.775 213.75,33.775 212.95,33.775 212.95,36.675 213.75,36.675 213.75,42.675 " />
      <polygon
         transform="translate(-419.07406,691.16463)"
         id="polygon10258-0"
         style="fill:none;stroke:#000000;stroke-width:0.15000001;stroke-miterlimit:4;stroke-dasharray:none"
         points="193.9,42.675 193.9,45.574 194.7,45.574 194.7,46.574 208.5,46.574 208.5,45.574 209.3,45.574 209.3,42.675 208.5,42.675 208.5,36.675 209.3,36.675 209.3,33.775 208.5,33.775 208.5,32.775 194.7,32.775 194.7,33.775 193.9,33.775 193.9,36.675 194.7,36.675 194.7,42.675 " />
      <polygon
         transform="translate(-419.07406,691.16463)"
         id="polygon10260-2"
         style="fill:none;stroke:#000000;stroke-width:0.15000001;stroke-miterlimit:4;stroke-dasharray:none"
         points="174.85,42.675 174.85,45.574 175.65,45.574 175.65,46.574 189.45,46.574 189.45,45.574 190.25,45.574 190.25,42.675 189.45,42.675 189.45,36.675 190.25,36.675 190.25,33.775 189.45,33.775 189.45,32.775 175.65,32.775 175.65,33.775 174.85,33.775 174.85,36.675 175.65,36.675 175.65,42.675 " />
      <polygon
         transform="translate(-419.07406,691.16463)"
         id="polygon10262-2"
         style="fill:none;stroke:#000000;stroke-width:0.15000001;stroke-miterlimit:4;stroke-dasharray:none"
         points="155.8,42.675 155.8,45.574 156.6,45.574 156.6,46.574 170.4,46.574 170.4,45.574 171.2,45.574 171.2,42.675 170.4,42.675 170.4,36.675 171.2,36.675 171.2,33.775 170.4,33.775 170.4,32.775 156.6,32.775 156.6,33.775 155.8,33.775 155.8,36.675 156.6,36.675 156.6,42.675 " />
      <polygon
         transform="translate(-419.07406,691.16463)"
         id="polygon10264-9"
         style="fill:none;stroke:#000000;stroke-width:0.15000001;stroke-miterlimit:4;stroke-dasharray:none"
         points="136.75,42.675 136.75,45.574 137.549,45.574 137.549,46.574 151.35,46.574 151.35,45.574 152.149,45.574 152.149,42.675 151.35,42.675 151.35,36.675 152.149,36.675 152.149,33.775 151.35,33.775 151.35,32.775 137.549,32.775 137.549,33.775 136.75,33.775 136.75,36.675 137.549,36.675 137.549,42.675 " />
      <polygon
         transform="translate(-419.07406,691.16463)"
         id="polygon10278-7"
         style="fill:none;stroke:#000000;stroke-width:0.15000001;stroke-miterlimit:4;stroke-dasharray:none"
         points="279.625,23.625 279.625,26.525 280.425,26.525 280.425,27.525 294.225,27.525 294.225,26.525 295.025,26.525 295.025,23.625 294.225,23.625 294.225,17.625 295.025,17.625 295.025,14.725 294.225,14.725 294.225,13.725 280.425,13.725 280.425,14.725 279.625,14.725 279.625,17.625 280.425,17.625 280.425,23.625 " />
      <polygon
         transform="translate(-419.07406,691.16463)"
         id="polygon10280-4"
         style="fill:none;stroke:#000000;stroke-width:0.15000001;stroke-miterlimit:4;stroke-dasharray:none"
         points="260.575,23.625 260.575,26.525 261.375,26.525 261.375,27.525 275.175,27.525 275.175,26.525 275.975,26.525 275.975,23.625 275.175,23.625 275.175,17.625 275.975,17.625 275.975,14.725 275.175,14.725 275.175,13.725 261.375,13.725 261.375,14.725 260.575,14.725 260.575,17.625 261.375,17.625 261.375,23.625 " />
      <polygon
         transform="translate(-419.07406,691.16463)"
         id="polygon10282-3"
         style="fill:none;stroke:#000000;stroke-width:0.15000001;stroke-miterlimit:4;stroke-dasharray:none"
         points="241.525,23.625 241.525,26.525 242.325,26.525 242.325,27.525 256.125,27.525 256.125,26.525 256.925,26.525 256.925,23.625 256.125,23.625 256.125,17.625 256.925,17.625 256.925,14.725 256.125,14.725 256.125,13.725 242.325,13.725 242.325,14.725 241.525,14.725 241.525,17.625 242.325,17.625 242.325,23.625 " />
      <polygon
         transform="translate(-419.07406,691.16463)"
         id="polygon10284-5"
         style="fill:none;stroke:#000000;stroke-width:0.15000001;stroke-miterlimit:4;stroke-dasharray:none"
         points="222.475,23.625 222.475,26.525 223.275,26.525 223.275,27.525 237.075,27.525 237.075,26.525 237.875,26.525 237.875,23.625 237.075,23.625 237.075,17.625 237.875,17.625 237.875,14.725 237.075,14.725 237.075,13.725 223.275,13.725 223.275,14.725 222.475,14.725 222.475,17.625 223.275,17.625 223.275,23.625 " />
      <polygon
         transform="translate(-419.07406,691.16463)"
         id="polygon10286-6"
         style="fill:none;stroke:#000000;stroke-width:0.15000001;stroke-miterlimit:4;stroke-dasharray:none"
         points="203.425,23.625 203.425,26.525 204.225,26.525 204.225,27.525 218.025,27.525 218.025,26.525 218.825,26.525 218.825,23.625 218.025,23.625 218.025,17.625 218.825,17.625 218.825,14.725 218.025,14.725 218.025,13.725 204.225,13.725 204.225,14.725 203.425,14.725 203.425,17.625 204.225,17.625 204.225,23.625 " />
      <polygon
         transform="translate(-419.07406,691.16463)"
         id="polygon10288-1"
         style="fill:none;stroke:#000000;stroke-width:0.15000001;stroke-miterlimit:4;stroke-dasharray:none"
         points="184.375,23.625 184.375,26.525 185.175,26.525 185.175,27.525 198.975,27.525 198.975,26.525 199.775,26.525 199.775,23.625 198.975,23.625 198.975,17.625 199.775,17.625 199.775,14.725 198.975,14.725 198.975,13.725 185.175,13.725 185.175,14.725 184.375,14.725 184.375,17.625 185.175,17.625 185.175,23.625 " />
      <polygon
         transform="translate(-419.07406,691.16463)"
         id="polygon10290-4"
         style="fill:none;stroke:#000000;stroke-width:0.15000001;stroke-miterlimit:4;stroke-dasharray:none"
         points="165.325,23.625 165.325,26.525 166.125,26.525 166.125,27.525 179.925,27.525 179.925,26.525 180.725,26.525 180.725,23.625 179.925,23.625 179.925,17.625 180.725,17.625 180.725,14.725 179.925,14.725 179.925,13.725 166.125,13.725 166.125,14.725 165.325,14.725 165.325,17.625 166.125,17.625 166.125,23.625 " />
      <polygon
         transform="translate(-419.07406,691.16463)"
         id="polygon10292-0"
         style="fill:none;stroke:#000000;stroke-width:0.15000001;stroke-miterlimit:4;stroke-dasharray:none"
         points="146.275,23.625 146.275,26.525 147.075,26.525 147.075,27.525 160.875,27.525 160.875,26.525 161.674,26.525 161.674,23.625 160.875,23.625 160.875,17.625 161.674,17.625 161.674,14.725 160.875,14.725 160.875,13.725 147.075,13.725 147.075,14.725 146.275,14.725 146.275,17.625 147.075,17.625 147.075,23.625 " />
      <circle
         r="1.375"
         cy="799.61359"
         cx="-275.38702"
         id="path11076-96-6"
         style="opacity:1;fill:none;fill-opacity:1;stroke:#000000;stroke-width:0.14999999;stroke-miterlimit:4;stroke-dasharray:none;stroke-opacity:1" />
      <circle
         r="1.375"
         cy="799.61359"
         cx="-120.12308"
         id="path11076-96-0"
         style="opacity:1;fill:none;fill-opacity:1;stroke:#000000;stroke-width:0.14999999;stroke-miterlimit:4;stroke-dasharray:none;stroke-opacity:1" />
      <circle
         r="1.375"
         cy="700.16461"
         cx="-120.12308"
         id="path11076-96-3"
         style="opacity:1;fill:none;fill-opacity:1;stroke:#000000;stroke-width:0.14999999;stroke-miterlimit:4;stroke-dasharray:none;stroke-opacity:1" />
      <circle
         r="1.375"
         cy="700.16461"
         cx="-270.62408"
         id="path11076-96-9"
         style="opacity:1;fill:none;fill-opacity:1;stroke:#000000;stroke-width:0.14999999;stroke-miterlimit:4;stroke-dasharray:none;stroke-opacity:1" />
      <path
         sodipodi:nodetypes="ccccccccccccccccc"
         inkscape:connector-curvature="0"
         id="path10673-3-25-1"
         d="M -118.12308,696.16462 H -272.6241 c -1,0 -2,1 -2,2 v 23.15002 h -9.52598 v 19.05 h 4.763 v 19.05002 h 9.525 v 19.04895 h -9.52495 v 23.15005 c 0,1 1,2 2,2 h 159.26395 c 1,0 2,-1 2,-2 V 698.16462 c 0,-1 -1,-2 -2,-2 z"
         style="fill:none;stroke:#000000;stroke-width:0.15000001;stroke-linecap:butt;stroke-linejoin:miter;stroke-miterlimit:4;stroke-dasharray:none;stroke-opacity:1" />
    </g>
    <g
       id="g12357"
       transform="translate(442.2571,-601.13335)">
      <polygon
         transform="translate(-490.38515,691.24219)"
         id="polygon10192-1"
         style="fill:none;stroke:#000000;stroke-width:0.15000001;stroke-miterlimit:4;stroke-dasharray:none"
         points="116.118,99.824 115.318,99.824 115.318,102.725 116.118,102.725 116.118,103.725 129.918,103.725 129.918,102.725 130.717,102.725 130.717,99.824 129.918,99.824 129.918,93.824 130.717,93.824 130.717,90.924 129.918,90.924 129.918,89.924 116.118,89.924 116.118,90.924 115.318,90.924 115.318,93.824 116.118,93.824 " />
      <polygon
         transform="translate(-490.38515,691.24219)"
         id="polygon10194-2"
         style="fill:none;stroke:#000000;stroke-width:0.15000001;stroke-miterlimit:4;stroke-dasharray:none"
         points="92.306,99.824 91.506,99.824 91.506,102.725 92.306,102.725 92.306,103.725 106.106,103.725 106.106,102.725 106.906,102.725 106.906,99.824 106.106,99.824 106.106,93.824 106.906,93.824 106.906,90.924 106.106,90.924 106.106,89.924 92.306,89.924 92.306,90.924 91.506,90.924 91.506,93.824 92.306,93.824 " />
      <polygon
         transform="translate(-490.38515,691.24219)"
         id="polygon10196-7"
         style="fill:none;stroke:#000000;stroke-width:0.15000001;stroke-miterlimit:4;stroke-dasharray:none"
         points="68.493,99.824 67.693,99.824 67.693,102.725 68.493,102.725 68.493,103.725 82.293,103.725 82.293,102.725 83.093,102.725 83.093,99.824 82.293,99.824 82.293,93.824 83.093,93.824 83.093,90.924 82.293,90.924 82.293,89.924 68.493,89.924 68.493,90.924 67.693,90.924 67.693,93.824 68.493,93.824 " />
      <polygon
         transform="translate(-490.38515,691.24219)"
         id="polygon10198-7"
         style="fill:none;stroke:#000000;stroke-width:0.15000001;stroke-miterlimit:4;stroke-dasharray:none"
         points="25.631,80.774 24.831,80.774 24.831,83.675 25.631,83.675 25.631,84.675 39.431,84.675 39.431,83.675 40.231,83.675 40.231,80.774 39.431,80.774 39.431,79.975 41.156,79.975 41.156,84.445 42.881,84.445 42.881,85.425 45.981,85.425 45.981,84.445 47.706,84.445 47.706,78.175 48.531,78.175 48.531,75.574 47.706,75.574 47.706,72.344 45.981,72.344 45.981,71.425 42.881,71.425 42.881,72.344 41.156,72.344 41.156,75.574 39.431,75.574 39.431,74.774 40.231,74.774 40.231,71.874 39.431,71.874 39.431,70.874 25.631,70.874 25.631,71.874 24.831,71.874 24.831,74.774 25.631,74.774 25.631,75.574 23.906,75.574 23.906,72.344 22.181,72.344 22.181,71.425 19.081,71.425 19.081,72.344 17.356,72.344 17.356,75.574 16.531,75.574 16.531,78.175 17.356,78.175 17.356,84.445 19.081,84.445 19.081,85.425 22.181,85.425 22.181,84.445 23.906,84.445 23.906,79.975 25.631,79.975 " />
      <polygon
         transform="translate(-490.38515,691.24219)"
         id="polygon10214-9"
         style="fill:none;stroke:#000000;stroke-width:0.15000001;stroke-miterlimit:4;stroke-dasharray:none"
         points="132.787,80.774 131.987,80.774 131.987,83.675 132.787,83.675 132.787,84.675 146.587,84.675 146.587,83.675 147.387,83.675 147.387,80.774 146.587,80.774 146.587,74.774 147.387,74.774 147.387,71.874 146.587,71.874 146.587,70.874 132.787,70.874 132.787,71.874 131.987,71.874 131.987,74.774 132.787,74.774 " />
      <polygon
         transform="translate(-490.38515,691.24219)"
         id="polygon10216-8"
         style="fill:none;stroke:#000000;stroke-width:0.15000001;stroke-miterlimit:4;stroke-dasharray:none"
         points="113.737,80.774 112.937,80.774 112.937,83.675 113.737,83.675 113.737,84.675 127.537,84.675 127.537,83.675 128.336,83.675 128.336,80.774 127.537,80.774 127.537,74.774 128.336,74.774 128.336,71.874 127.537,71.874 127.537,70.874 113.737,70.874 113.737,71.874 112.937,71.874 112.937,74.774 113.737,74.774 " />
      <polygon
         transform="translate(-490.38515,691.24219)"
         id="polygon10218-1"
         style="fill:none;stroke:#000000;stroke-width:0.15000001;stroke-miterlimit:4;stroke-dasharray:none"
         points="94.687,80.774 93.887,80.774 93.887,83.675 94.687,83.675 94.687,84.675 108.487,84.675 108.487,83.675 109.287,83.675 109.287,80.774 108.487,80.774 108.487,74.774 109.287,74.774 109.287,71.874 108.487,71.874 108.487,70.874 94.687,70.874 94.687,71.874 93.887,71.874 93.887,74.774 94.687,74.774 " />
      <polygon
         transform="translate(-490.38515,691.24219)"
         id="polygon10220-0"
         style="fill:none;stroke:#000000;stroke-width:0.15000001;stroke-miterlimit:4;stroke-dasharray:none"
         points="75.637,80.774 74.837,80.774 74.837,83.675 75.637,83.675 75.637,84.675 89.437,84.675 89.437,83.675 90.237,83.675 90.237,80.774 89.437,80.774 89.437,74.774 90.237,74.774 90.237,71.874 89.437,71.874 89.437,70.874 75.637,70.874 75.637,71.874 74.837,71.874 74.837,74.774 75.637,74.774 " />
      <polygon
         transform="translate(-490.38515,691.24219)"
         id="polygon10222-7"
         style="fill:none;stroke:#000000;stroke-width:0.15000001;stroke-miterlimit:4;stroke-dasharray:none"
         points="56.587,80.774 55.787,80.774 55.787,83.675 56.587,83.675 56.587,84.675 70.387,84.675 70.387,83.675 71.187,83.675 71.187,80.774 70.387,80.774 70.387,74.774 71.187,74.774 71.187,71.874 70.387,71.874 70.387,70.874 56.587,70.874 56.587,71.874 55.787,71.874 55.787,74.774 56.587,74.774 " />
      <polygon
         transform="translate(-490.38515,691.24219)"
         id="polygon10238-6"
         style="fill:none;stroke:#000000;stroke-width:0.15000001;stroke-miterlimit:4;stroke-dasharray:none"
         points="123.262,61.724 122.462,61.724 122.462,64.625 123.262,64.625 123.262,65.625 137.062,65.625 137.062,64.625 137.862,64.625 137.862,61.724 137.062,61.724 137.062,55.724 137.862,55.724 137.862,52.824 137.062,52.824 137.062,51.824 123.262,51.824 123.262,52.824 122.462,52.824 122.462,55.724 123.262,55.724 " />
      <polygon
         transform="translate(-490.38515,691.24219)"
         id="polygon10240-0"
         style="fill:none;stroke:#000000;stroke-width:0.15000001;stroke-miterlimit:4;stroke-dasharray:none"
         points="104.212,61.724 103.412,61.724 103.412,64.625 104.212,64.625 104.212,65.625 118.012,65.625 118.012,64.625 118.812,64.625 118.812,61.724 118.012,61.724 118.012,55.724 118.812,55.724 118.812,52.824 118.012,52.824 118.012,51.824 104.212,51.824 104.212,52.824 103.412,52.824 103.412,55.724 104.212,55.724 " />
      <polygon
         transform="translate(-490.38515,691.24219)"
         id="polygon10242-1"
         style="fill:none;stroke:#000000;stroke-width:0.15000001;stroke-miterlimit:4;stroke-dasharray:none"
         points="85.162,61.724 84.362,61.724 84.362,64.625 85.162,64.625 85.162,65.625 98.962,65.625 98.962,64.625 99.762,64.625 99.762,61.724 98.962,61.724 98.962,55.724 99.762,55.724 99.762,52.824 98.962,52.824 98.962,51.824 85.162,51.824 85.162,52.824 84.362,52.824 84.362,55.724 85.162,55.724 " />
      <polygon
         transform="translate(-490.38515,691.24219)"
         id="polygon10244-0"
         style="fill:none;stroke:#000000;stroke-width:0.15000001;stroke-miterlimit:4;stroke-dasharray:none"
         points="66.112,61.724 65.312,61.724 65.312,64.625 66.112,64.625 66.112,65.625 79.912,65.625 79.912,64.625 80.712,64.625 80.712,61.724 79.912,61.724 79.912,55.724 80.712,55.724 80.712,52.824 79.912,52.824 79.912,51.824 66.112,51.824 66.112,52.824 65.312,52.824 65.312,55.724 66.112,55.724 " />
      <polygon
         transform="translate(-490.38515,691.24219)"
         id="polygon10246-2"
         style="fill:none;stroke:#000000;stroke-width:0.15000001;stroke-miterlimit:4;stroke-dasharray:none"
         points="47.062,61.724 46.262,61.724 46.262,64.625 47.062,64.625 47.062,65.625 60.862,65.625 60.862,64.625 61.662,64.625 61.662,61.724 60.862,61.724 60.862,55.724 61.662,55.724 61.662,52.824 60.862,52.824 60.862,51.824 47.062,51.824 47.062,52.824 46.262,52.824 46.262,55.724 47.062,55.724 " />
      <polygon
         transform="translate(-490.38515,691.24219)"
         id="polygon10248-5"
         style="fill:none;stroke:#000000;stroke-width:0.15000001;stroke-miterlimit:4;stroke-dasharray:none"
         points="20.868,61.724 20.068,61.724 20.068,64.625 20.868,64.625 20.868,65.625 34.668,65.625 34.668,64.625 35.468,64.625 35.468,61.724 34.668,61.724 34.668,55.724 35.468,55.724 35.468,52.824 34.668,52.824 34.668,51.824 20.868,51.824 20.868,52.824 20.068,52.824 20.068,55.724 20.868,55.724 " />
      <polygon
         transform="translate(-490.38515,691.24219)"
         id="polygon10266-1"
         style="fill:none;stroke:#000000;stroke-width:0.15000001;stroke-miterlimit:4;stroke-dasharray:none"
         points="118.499,42.675 117.699,42.675 117.699,45.574 118.499,45.574 118.499,46.574 132.299,46.574 132.299,45.574 133.1,45.574 133.1,42.675 132.299,42.675 132.299,36.675 133.1,36.675 133.1,33.775 132.299,33.775 132.299,32.775 118.499,32.775 118.499,33.775 117.699,33.775 117.699,36.675 118.499,36.675 " />
      <polygon
         transform="translate(-490.38515,691.24219)"
         id="polygon10268-9"
         style="fill:none;stroke:#000000;stroke-width:0.15000001;stroke-miterlimit:4;stroke-dasharray:none"
         points="99.449,42.675 98.649,42.675 98.649,45.574 99.449,45.574 99.449,46.574 113.25,46.574 113.25,45.574 114.05,45.574 114.05,42.675 113.25,42.675 113.25,36.675 114.05,36.675 114.05,33.775 113.25,33.775 113.25,32.775 99.449,32.775 99.449,33.775 98.649,33.775 98.649,36.675 99.449,36.675 " />
      <polygon
         transform="translate(-490.38515,691.24219)"
         id="polygon10270-7"
         style="fill:none;stroke:#000000;stroke-width:0.15000001;stroke-miterlimit:4;stroke-dasharray:none"
         points="80.399,42.675 79.6,42.675 79.6,45.574 80.399,45.574 80.399,46.574 94.2,46.574 94.2,45.574 95,45.574 95,42.675 94.2,42.675 94.2,36.675 95,36.675 95,33.775 94.2,33.775 94.2,32.775 80.399,32.775 80.399,33.775 79.6,33.775 79.6,36.675 80.399,36.675 " />
      <polygon
         transform="translate(-490.38515,691.24219)"
         id="polygon10272-1"
         style="fill:none;stroke:#000000;stroke-width:0.15000001;stroke-miterlimit:4;stroke-dasharray:none"
         points="61.35,42.675 60.55,42.675 60.55,45.574 61.35,45.574 61.35,46.574 75.15,46.574 75.15,45.574 75.95,45.574 75.95,42.675 75.15,42.675 75.15,36.675 75.95,36.675 75.95,33.775 75.15,33.775 75.15,32.775 61.35,32.775 61.35,33.775 60.55,33.775 60.55,36.675 61.35,36.675 " />
      <polygon
         transform="translate(-490.38515,691.24219)"
         id="polygon10274-3"
         style="fill:none;stroke:#000000;stroke-width:0.15000001;stroke-miterlimit:4;stroke-dasharray:none"
         points="42.3,42.675 41.5,42.675 41.5,45.574 42.3,45.574 42.3,46.574 56.1,46.574 56.1,45.574 56.9,45.574 56.9,42.675 56.1,42.675 56.1,36.675 56.9,36.675 56.9,33.775 56.1,33.775 56.1,32.775 42.3,32.775 42.3,33.775 41.5,33.775 41.5,36.675 42.3,36.675 " />
      <polygon
         transform="translate(-490.38515,691.24219)"
         id="polygon10276-1"
         style="fill:none;stroke:#000000;stroke-width:0.15000001;stroke-miterlimit:4;stroke-dasharray:none"
         points="18.487,42.675 17.687,42.675 17.687,45.574 18.487,45.574 18.487,46.574 32.287,46.574 32.287,45.574 33.087,45.574 33.087,42.675 32.287,42.675 32.287,36.675 33.087,36.675 33.087,33.775 32.287,33.775 32.287,32.775 18.487,32.775 18.487,33.775 17.687,33.775 17.687,36.675 18.487,36.675 " />
      <polygon
         transform="translate(-490.38515,691.24219)"
         id="polygon10294-2"
         style="fill:none;stroke:#000000;stroke-width:0.15000001;stroke-miterlimit:4;stroke-dasharray:none"
         points="128.024,23.625 127.224,23.625 127.224,26.525 128.024,26.525 128.024,27.525 141.825,27.525 141.825,26.525 142.624,26.525 142.624,23.625 141.825,23.625 141.825,17.625 142.624,17.625 142.624,14.725 141.825,14.725 141.825,13.725 128.024,13.725 128.024,14.725 127.224,14.725 127.224,17.625 128.024,17.625 " />
      <polygon
         transform="translate(-490.38515,691.24219)"
         id="polygon10296-0"
         style="fill:none;stroke:#000000;stroke-width:0.15000001;stroke-miterlimit:4;stroke-dasharray:none"
         points="108.974,23.625 108.174,23.625 108.174,26.525 108.974,26.525 108.974,27.525 122.774,27.525 122.774,26.525 123.574,26.525 123.574,23.625 122.774,23.625 122.774,17.625 123.574,17.625 123.574,14.725 122.774,14.725 122.774,13.725 108.974,13.725 108.974,14.725 108.174,14.725 108.174,17.625 108.974,17.625 " />
      <polygon
         transform="translate(-490.38515,691.24219)"
         id="polygon10298-6"
         style="fill:none;stroke:#000000;stroke-width:0.15000001;stroke-miterlimit:4;stroke-dasharray:none"
         points="89.924,23.625 89.124,23.625 89.124,26.525 89.924,26.525 89.924,27.525 103.725,27.525 103.725,26.525 104.524,26.525 104.524,23.625 103.725,23.625 103.725,17.625 104.524,17.625 104.524,14.725 103.725,14.725 103.725,13.725 89.924,13.725 89.924,14.725 89.124,14.725 89.124,17.625 89.924,17.625 " />
      <polygon
         transform="translate(-490.38515,691.24219)"
         id="polygon10300-8"
         style="fill:none;stroke:#000000;stroke-width:0.15000001;stroke-miterlimit:4;stroke-dasharray:none"
         points="70.874,23.625 70.074,23.625 70.074,26.525 70.874,26.525 70.874,27.525 84.675,27.525 84.675,26.525 85.475,26.525 85.475,23.625 84.675,23.625 84.675,17.625 85.475,17.625 85.475,14.725 84.675,14.725 84.675,13.725 70.874,13.725 70.874,14.725 70.074,14.725 70.074,17.625 70.874,17.625 " />
      <polygon
         transform="translate(-490.38515,691.24219)"
         id="polygon10302-7"
         style="fill:none;stroke:#000000;stroke-width:0.15000001;stroke-miterlimit:4;stroke-dasharray:none"
         points="51.824,23.625 51.024,23.625 51.024,26.525 51.824,26.525 51.824,27.525 65.625,27.525 65.625,26.525 66.425,26.525 66.425,23.625 65.625,23.625 65.625,17.625 66.425,17.625 66.425,14.725 65.625,14.725 65.625,13.725 51.824,13.725 51.824,14.725 51.024,14.725 51.024,17.625 51.824,17.625 " />
      <polygon
         transform="translate(-490.38515,691.24219)"
         id="polygon10304-4"
         style="fill:none;stroke:#000000;stroke-width:0.15000001;stroke-miterlimit:4;stroke-dasharray:none"
         points="32.775,23.625 31.974,23.625 31.974,26.525 32.775,26.525 32.775,27.525 46.574,27.525 46.574,26.525 47.375,26.525 47.375,23.625 46.574,23.625 46.574,17.625 47.375,17.625 47.375,14.725 46.574,14.725 46.574,13.725 32.775,13.725 32.775,14.725 31.974,14.725 31.974,17.625 32.775,17.625 " />
      <polygon
         transform="translate(-490.38515,691.24219)"
         id="polygon10306-9"
         style="fill:none;stroke:#000000;stroke-width:0.15000001;stroke-miterlimit:4;stroke-dasharray:none"
         points="13.725,23.625 12.925,23.625 12.925,26.525 13.725,26.525 13.725,27.525 27.525,27.525 27.525,26.525 28.325,26.525 28.325,23.625 27.525,23.625 27.525,17.625 28.325,17.625 28.325,14.725 27.525,14.725 27.525,13.725 13.725,13.725 13.725,14.725 12.925,14.725 12.925,17.625 13.725,17.625 " />
      <g
         id="g11182">
        <circle
           style="opacity:1;fill:none;fill-opacity:1;stroke:#000000;stroke-width:0.14999999;stroke-miterlimit:4;stroke-dasharray:none;stroke-opacity:1"
           id="path11076"
           cx="-481.38516"
           cy="799.69116"
           r="1.375" />
        <circle
           style="opacity:1;fill:none;fill-opacity:1;stroke:#000000;stroke-width:0.14999999;stroke-miterlimit:4;stroke-dasharray:none;stroke-opacity:1"
           id="path11076-4"
           cx="-354.69812"
           cy="799.69116"
           r="1.375" />
        <circle
           style="opacity:1;fill:none;fill-opacity:1;stroke:#000000;stroke-width:0.14999999;stroke-miterlimit:4;stroke-dasharray:none;stroke-opacity:1"
           id="path11076-9"
           cx="-349.93518"
           cy="700.24219"
           r="1.375" />
        <circle
           style="opacity:1;fill:none;fill-opacity:1;stroke:#000000;stroke-width:0.14999999;stroke-miterlimit:4;stroke-dasharray:none;stroke-opacity:1"
           id="path11076-2"
           cx="-481.38516"
           cy="700.24219"
           r="1.375" />
      </g>
      <path
         sodipodi:nodetypes="ccccccccccccccccc"
         inkscape:connector-curvature="0"
         id="path10906-2-8-2-0"
         d="m -483.38499,696.24216 h 135.44996 c 1,0 2,1 2,2 v 23.15002 h -9.52598 v 19.05 h 4.763 v 19.05003 h 9.525 v 19.04895 h -9.52495 v 23.15004 c 0,1 -1,2 -2,2 h -130.68703 c -1,0 -2,-1 -2,-2 V 698.24216 c 0,-1 1,-2 2,-2 z"
         style="fill:none;stroke:#000000;stroke-width:0.15000001;stroke-linecap:butt;stroke-linejoin:miter;stroke-miterlimit:4;stroke-dasharray:none;stroke-opacity:1" />
    </g>
  </g>
</svg>
